<svg xmlns="http://www.w3.org/2000/svg" viewBox="0 0 40 40" width="40" height="40" role="img" aria-label="GalaxyAI">
  <defs>
    <radialGradient id="gc-sky" cx="50%" cy="50%" r="65%">
      <stop offset="0%" stop-color="#12121a"/>
      <stop offset="70%" stop-color="#0a0a10"/>
      <stop offset="100%" stop-color="#050508"/>
    </radialGradient>
    <linearGradient id="gc-milky" x1="0%" y1="50%" x2="100%" y2="50%">
      <stop offset="0%" stop-color="#94a3b8" stop-opacity="0"/>
      <stop offset="45%" stop-color="#cbd5e1" stop-opacity="0.14"/>
      <stop offset="55%" stop-color="#e2e8f0" stop-opacity="0.22"/>
      <stop offset="65%" stop-color="#cbd5e1" stop-opacity="0.12"/>
      <stop offset="100%" stop-color="#64748b" stop-opacity="0"/>
    </linearGradient>
    <radialGradient id="gc-core" cx="50%" cy="50%" r="50%">
      <stop offset="0%" stop-color="#f1f5f9" stop-opacity="0.35"/>
      <stop offset="40%" stop-color="#94a3b8" stop-opacity="0.12"/>
      <stop offset="100%" stop-color="#0a0a10" stop-opacity="0"/>
    </radialGradient>
    <clipPath id="gc-round">
      <rect x="0" y="0" width="40" height="40" rx="10" ry="10"/>
    </clipPath>
  </defs>
  <g clip-path="url(#gc-round)">
    <rect width="40" height="40" rx="10" fill="url(#gc-sky)"/>
    <ellipse cx="20" cy="20" rx="17" ry="5.5" fill="url(#gc-milky)" transform="rotate(-32 20 20)"/>
    <ellipse cx="20" cy="20" rx="14" ry="4" fill="url(#gc-milky)" transform="rotate(48 20 20)" opacity="0.65"/>
    <circle cx="20" cy="20" r="9" fill="url(#gc-core)"/>
    <circle cx="6" cy="7" r="0.35" fill="#f8fafc" opacity="0.85"/>
    <circle cx="12" cy="4" r="0.25" fill="#e2e8f0" opacity="0.7"/>
    <circle cx="9" cy="12" r="0.2" fill="#cbd5e1" opacity="0.65"/>
    <circle cx="4" cy="16" r="0.45" fill="#fff" opacity="0.95"/>
    <circle cx="7" cy="23" r="0.22" fill="#94a3b8" opacity="0.55"/>
    <circle cx="5" cy="30" r="0.3" fill="#e2e8f0" opacity="0.75"/>
    <circle cx="13" cy="28" r="0.18" fill="#64748b" opacity="0.5"/>
    <circle cx="16" cy="9" r="0.28" fill="#f1f5f9" opacity="0.8"/>
    <circle cx="20" cy="6" r="0.2" fill="#cbd5e1" opacity="0.6"/>
    <circle cx="24" cy="10" r="0.5" fill="#fff" opacity="0.9"/>
    <circle cx="28" cy="5" r="0.2" fill="#e2e8f0" opacity="0.55"/>
    <circle cx="32" cy="9" r="0.32" fill="#f8fafc" opacity="0.82"/>
    <circle cx="34" cy="16" r="0.18" fill="#94a3b8" opacity="0.45"/>
    <circle cx="31" cy="22" r="0.38" fill="#fff" opacity="0.88"/>
    <circle cx="36" cy="26" r="0.22" fill="#cbd5e1" opacity="0.65"/>
    <circle cx="29" cy="31" r="0.26" fill="#e2e8f0" opacity="0.72"/>
    <circle cx="22" cy="33" r="0.2" fill="#64748b" opacity="0.5"/>
    <circle cx="17" cy="20" r="0.24" fill="#f1f5f9" opacity="0.55"/>
    <circle cx="25" cy="17" r="0.2" fill="#cbd5e1" opacity="0.5"/>
    <circle cx="14" cy="18" r="0.15" fill="#94a3b8" opacity="0.4"/>
    <circle cx="10" cy="20" r="0.55" fill="#fff" opacity="0.75"/>
    <circle cx="18" cy="14" r="0.18" fill="#e2e8f0" opacity="0.6"/>
    <circle cx="27" cy="28" r="0.16" fill="#cbd5e1" opacity="0.48"/>
  </g>
  <rect x="0.5" y="0.5" width="39" height="39" rx="9.5" fill="none" stroke="#27272a" stroke-width="1" opacity="0.9"/>
</svg>
