<svg xmlns="http://www.w3.org/2000/svg" viewBox="0 0 64 64" width="64" height="64">
  <circle cx="32" cy="32" r="30" fill="#f8f9fa"/>
  <path fill="#4285f4" d="M18 28a8 8 0 0114-5.7v7.1a3.5 3.5 0 00-5.5 2.9v14.7h-6V28z"/>
  <path fill="#ea4335" d="M32 22.3a8 8 0 0114 5.7v14h-6V33.3a3.5 3.5 0 00-5.5-2.9v-8.1z"/>
  <path fill="#fbbc04" d="M32 35.7a3.5 3.5 0 00-2.5 1l-4.5-3.5a8 8 0 007 11.8V42.9a3.5 3.5 0 01-2.5-1z"/>
  <path fill="#34a853" d="M39.5 36.7l4.5 3.5A8 8 0 0132 28.6v7.1a3.5 3.5 0 012.5 1z"/>
</svg>
